<?xml version="1.0" encoding="iso-8859-1"?>
<!-- Uploaded to: SVG Repo, www.svgrepo.com, Generator: SVG Repo Mixer Tools -->
<!DOCTYPE svg PUBLIC "-//W3C//DTD SVG 1.1//EN" "http://www.w3.org/Graphics/SVG/1.1/DTD/svg11.dtd">
<svg fill="#000000" height="800px" width="800px" version="1.1" id="Capa_1" xmlns="http://www.w3.org/2000/svg" xmlns:xlink="http://www.w3.org/1999/xlink" 
	 viewBox="0 0 447.021 447.021" xml:space="preserve">
<g>
	<path d="M423.521,224.01h-48c-12.958,0-23.5,10.542-23.5,23.5v37.895L161.613,95.016l45.963,0.014
		c12.927-0.031,23.444-10.573,23.444-23.5V23.51c0-6.283-2.448-12.188-6.894-16.627c-4.438-4.433-10.334-6.873-16.601-6.873
		c-0.01,0-0.021,0-0.031,0L7.599,0.113C3.459,0.115,0.105,3.47,0.103,7.609L0,199.51c0,12.958,10.542,23.5,23.5,23.5h48
		c12.958,0,23.5-10.542,23.5-23.5v-37.895l190.408,190.389l-45.964-0.014c-12.927,0.031-23.444,10.573-23.444,23.5v48.019
		c0,6.283,2.448,12.188,6.894,16.628c4.438,4.433,10.333,6.872,16.599,6.872c0.01,0,0.021,0,0.032,0l199.897-0.103
		c4.139-0.002,7.494-3.357,7.496-7.496l0.103-191.901C447.021,234.552,436.479,224.01,423.521,224.01z M431.922,431.912
		l-192.411,0.099c-0.004,0-0.008,0-0.012,0c-2.268,0-4.401-0.882-6.006-2.485c-1.608-1.606-2.494-3.742-2.494-6.015v-48.019
		c0-4.676,3.804-8.489,8.459-8.5l64.059,0.019c0.001,0,0.001,0,0.002,0c3.033,0,5.768-1.827,6.929-4.629
		c1.162-2.803,0.52-6.029-1.625-8.175l-216.021-216c-2.146-2.145-5.371-2.785-8.173-1.625c-2.803,1.161-4.63,3.896-4.63,6.929v56
		c0,4.687-3.813,8.5-8.5,8.5h-48c-4.687,0-8.5-3.813-8.5-8.496l0.099-184.405L207.51,15.01c0.003,0,0.007,0,0.011,0
		c2.269,0,4.402,0.883,6.007,2.486c1.608,1.606,2.493,3.742,2.493,6.014v48.02c0,4.676-3.804,8.489-8.459,8.5l-64.059-0.02
		c-0.001,0-0.001,0-0.002,0c-3.033,0-5.768,1.827-6.929,4.629c-1.162,2.803-0.52,6.029,1.625,8.175l216.021,216
		c2.146,2.145,5.373,2.786,8.173,1.625c2.803-1.161,4.63-3.896,4.63-6.929v-56c0-4.687,3.813-8.5,8.5-8.5h48
		c4.687,0,8.5,3.813,8.5,8.496L431.922,431.912z"/>
	<path d="M311.521,384.01h-56.569c-4.142,0-7.5,3.358-7.5,7.5s3.358,7.5,7.5,7.5h56.569c4.142,0,7.5-3.358,7.5-7.5
		S315.663,384.01,311.521,384.01z"/>
	<path d="M143.021,39.51c0-4.142-3.358-7.5-7.5-7.5h-80c-4.142,0-7.5,3.358-7.5,7.5s3.358,7.5,7.5,7.5h80
		C139.663,47.01,143.021,43.653,143.021,39.51z"/>
	<path d="M167.521,47.01h16c4.142,0,7.5-3.358,7.5-7.5s-3.358-7.5-7.5-7.5h-16c-4.142,0-7.5,3.358-7.5,7.5
		S163.379,47.01,167.521,47.01z"/>
</g>
</svg>